<?xml version="1.0" encoding="UTF-8"?>
<svg id="Ebene_1" data-name="Ebene 1" xmlns="http://www.w3.org/2000/svg" width="268.49" height="243.51" xmlns:xlink="http://www.w3.org/1999/xlink" viewBox="0 0 268.49 243.51">
  <defs>
    <style>
      .cls-1 {
        fill: url(#Unbenannter_Verlauf_65);
      }

      .cls-1, .cls-2, .cls-3, .cls-4, .cls-5, .cls-6, .cls-7, .cls-8, .cls-9, .cls-10, .cls-11, .cls-12, .cls-13, .cls-14, .cls-15 {
        stroke-width: 0px;
      }

      .cls-2 {
        fill: #a8a7a7;
      }

      .cls-3 {
        fill: url(#Unbenannter_Verlauf_47);
      }

      .cls-4 {
        fill: url(#Unbenannter_Verlauf_45);
      }

      .cls-16 {
        letter-spacing: -.02em;
      }

      .cls-5 {
        fill: url(#Unbenannter_Verlauf_43-2);
      }

      .cls-6 {
        fill: url(#Unbenannter_Verlauf_43);
      }

      .cls-17 {
        fill: #e2388a;
        font-family: EagleLake-Regular, 'Eagle Lake';
        font-size: 34.79px;
        stroke: #000;
        stroke-miterlimit: 10;
        stroke-width: .25px;
      }

      .cls-7 {
        fill: url(#Unbenannter_Verlauf_45-2);
      }

      .cls-8 {
        fill: url(#Unbenannter_Verlauf_45-3);
      }

      .cls-9 {
        fill: url(#Unbenannter_Verlauf_43-3);
      }

      .cls-10 {
        fill: url(#Unbenannter_Verlauf_65-2);
      }

      .cls-11 {
        fill: url(#Unbenannter_Verlauf_39);
      }

      .cls-12 {
        fill: url(#Unbenannter_Verlauf_45-4);
      }

      .cls-13 {
        fill: url(#Unbenannter_Verlauf_92);
      }

      .cls-14 {
        fill: url(#Unbenannter_Verlauf_43-4);
      }

      .cls-15 {
        fill: url(#Unbenannter_Verlauf_41);
      }
    </style>
    <linearGradient id="Unbenannter_Verlauf_65" data-name="Unbenannter Verlauf 65" x1="210.61" y1="176.64" x2="152.37" y2="123.3" gradientUnits="userSpaceOnUse">
      <stop offset="0" stop-color="#e13788"/>
      <stop offset=".25" stop-color="#b93079"/>
      <stop offset=".5" stop-color="#8f2868"/>
      <stop offset=".74" stop-color="#78235f"/>
      <stop offset=".8" stop-color="#6b2255"/>
      <stop offset=".89" stop-color="#4a203d"/>
      <stop offset="1" stop-color="#1d1e1c"/>
    </linearGradient>
    <linearGradient id="Unbenannter_Verlauf_92" data-name="Unbenannter Verlauf 92" x1="187.94" y1="38.3" x2="100.77" y2="176.1" gradientUnits="userSpaceOnUse">
      <stop offset="0" stop-color="#e13788"/>
      <stop offset=".26" stop-color="#b93079"/>
      <stop offset=".5" stop-color="#8f2868"/>
      <stop offset=".74" stop-color="#78235f"/>
      <stop offset="1" stop-color="#1d1e1c"/>
    </linearGradient>
    <linearGradient id="Unbenannter_Verlauf_65-2" data-name="Unbenannter Verlauf 65" x1="73.04" y1="29.18" x2="121.58" y2="142.28" xlink:href="#Unbenannter_Verlauf_65"/>
    <linearGradient id="Unbenannter_Verlauf_43" data-name="Unbenannter Verlauf 43" x1="71.78" y1="160.01" x2="79.13" y2="131.27" gradientUnits="userSpaceOnUse">
      <stop offset="0" stop-color="#e23688"/>
      <stop offset=".31" stop-color="#ba307a"/>
      <stop offset=".71" stop-color="#8f2868"/>
      <stop offset="1" stop-color="#78235f"/>
    </linearGradient>
    <linearGradient id="Unbenannter_Verlauf_43-2" data-name="Unbenannter Verlauf 43" x1="35.69" y1="74.13" x2="41.9" y2="49.83" xlink:href="#Unbenannter_Verlauf_43"/>
    <linearGradient id="Unbenannter_Verlauf_43-3" data-name="Unbenannter Verlauf 43" x1="36.58" y1="109.61" x2="41.49" y2="90.4" xlink:href="#Unbenannter_Verlauf_43"/>
    <linearGradient id="Unbenannter_Verlauf_45" data-name="Unbenannter Verlauf 45" x1="67.4" y1="35.81" x2="85.71" y2="60.35" gradientUnits="userSpaceOnUse">
      <stop offset="0" stop-color="#e23688"/>
      <stop offset=".31" stop-color="#ba307a"/>
      <stop offset=".71" stop-color="#8f2868"/>
      <stop offset="1" stop-color="#78235f"/>
    </linearGradient>
    <linearGradient id="Unbenannter_Verlauf_45-2" data-name="Unbenannter Verlauf 45" x1="44.51" y1="39.59" x2="72.85" y2="67.74" xlink:href="#Unbenannter_Verlauf_45"/>
    <linearGradient id="Unbenannter_Verlauf_45-3" data-name="Unbenannter Verlauf 45" x1="42.4" y1="67.26" x2="61.51" y2="68.34" xlink:href="#Unbenannter_Verlauf_45"/>
    <linearGradient id="Unbenannter_Verlauf_47" data-name="Unbenannter Verlauf 47" x1="35.68" y1="88.61" x2="57.17" y2="71.14" gradientUnits="userSpaceOnUse">
      <stop offset="0" stop-color="#ba307a"/>
      <stop offset=".23" stop-color="#e23688"/>
      <stop offset=".71" stop-color="#8f2868"/>
      <stop offset="1" stop-color="#78235f"/>
    </linearGradient>
    <linearGradient id="Unbenannter_Verlauf_45-4" data-name="Unbenannter Verlauf 45" x1="37.25" y1="127.69" x2="50.27" y2="95.4" xlink:href="#Unbenannter_Verlauf_45"/>
    <linearGradient id="Unbenannter_Verlauf_43-4" data-name="Unbenannter Verlauf 43" x1="38.77" y1="148.84" x2="50.39" y2="103.39" xlink:href="#Unbenannter_Verlauf_43"/>
    <linearGradient id="Unbenannter_Verlauf_41" data-name="Unbenannter Verlauf 41" x1="46.33" y1="151.46" x2="58.07" y2="126.2" gradientUnits="userSpaceOnUse">
      <stop offset=".05" stop-color="#e23688"/>
      <stop offset=".31" stop-color="#ba307a"/>
      <stop offset=".71" stop-color="#8f2868"/>
      <stop offset="1" stop-color="#78235f"/>
    </linearGradient>
    <linearGradient id="Unbenannter_Verlauf_39" data-name="Unbenannter Verlauf 39" x1="67.47" y1="167.85" x2="61.84" y2="131.02" gradientUnits="userSpaceOnUse">
      <stop offset="0" stop-color="#e23688"/>
      <stop offset=".33" stop-color="#ba307a"/>
      <stop offset=".7" stop-color="#8f2868"/>
      <stop offset="1" stop-color="#78235f"/>
    </linearGradient>
  </defs>
  <text class="cls-17" transform="translate(64.92 203.18)"><tspan x="0" y="0">Kavit</tspan><tspan class="cls-16" x="105.57" y="0">a</tspan></text>
  <g>
    <path class="cls-1" d="M229,175.84l-65.32-66.41-17.52,30.21,21.2,21.51s17.51,20.5,61.64,14.69Z"/>
    <path class="cls-13" d="M201.52,46.21s-34.68,59.96-55.37,95.57c-6.21,10.69-17.28,33.25-34.37,34.81-4.98.46-9.89-1.14-13.72-4.34-3.59-3.01-7.63-8.05-9-16.05,1.96,1.28,5.17,4.42,8.49.41,1.87-2.81,58.08-98.28,58.08-98.28,0,0,7.75-16.27,45.88-12.12Z"/>
    <path class="cls-10" d="M73.05,30.05s15.42,1.62,15.42,20.7c0,2.73.6,105.45.6,105.45,0,0,5.49,4.74,8.49,1.48,1.99-2.78,24.56-42,24.56-42v-55.13s2.72-35.35-49.07-30.5Z"/>
  </g>
  <g>
    <path class="cls-2" d="M84,95.13s.26-25.69-4.28-28.62c-1.6-.13-7.99-.06-10.35,1.79-1.28,2.56-3.83,9.86-9.07,12.5.7-1.64,1.53-3.56,1.21-5.22-1.35.47-8.45,3.32-11.26,10.46-.43,1.08-.66,2.23-.77,3.39-.13,1.37-.17,2.19.05,4.33.05.51.13,1.03.23,1.53.56,2.84,1.24,6.58,6.62,11.37,1.63-1.76.4-1.43,6.41-4.81-1.85,2.17-9.65,7.73-3.2,18.59.62-2.71.09-5.03,2.87-8.75.09-.12.19-.23.3-.34,1.44-1.41,4.33-3.94,6.19-6.77.08-.12.14-.24.19-.37.59-1.35,1.51-2.25.11-5.3-.65-1.3.24-1.04-2.52-1.73-2.62-.65-6.74-1.21-9.04-6.52,1.13-.88,8.03-5.17,12.94,1.05.15.19.24.43.24.67.04,1.7-.43,2.49.27,4.88.06.2.14.41.22.6.94,2.07,1.75,2.82.73,6.07-.06.18-.15.37-.26.52-1.84,2.53-9.61,11.11-9.74,16.06-.26,3.07-2.11,10.1,6.9,14.7,1.88.65,7.08,1.95,10.88-1.75.56-.55,1.02-1.21,1.4-1.9,1.32-2.41,2.22-4.08.12-6.57-.38-.45-.85-.81-1.38-1.07-2.37-1.15-7.49-3.39-8.4-4.36-.58-.64-1.41-.6-1.45-3.32.6-.13.4-.3,1.24-.21.17,1.11.09,1.75.89,2.6.77.09.68.21,1.53-.17,0-.81.34-1.36,1.11-1.45,1.27.09.2.09,4.98,1.96,1.06.52,2.67.6,3.83.38,1.18-.22.26-24.19.26-24.19ZM57.77,92.38s2.63,4.22,5.01,4.77c-1.67.15-2.77-.51-3.72-1.14-.2-.14-.39-.3-.54-.49-.69-.88-1-1.77-.75-3.14ZM71.08,109.3s2.98-3.98,2.98-5.79c0-1.07-.21-3.79-1.49-5.75,1.49,1.15,2.89,2.72,2.9,5.43,0,.37-.05.75-.09,1.12-.25,2.08-1.31,3.15-4.29,5Z"/>
    <path class="cls-6" d="M84.34,132.6s-6.34,9.99-16.35,4.22c-.77,2.39-2.53,7.08,1.44,13.09-.07-1.75-1.1-4.3,1.46-7.97-.6,2.81-2.26,6.18,2.51,11.12-.51-2.04-.98-5.79.94-8.77.77,2.13,3.96,9.88,1.58,16.78,1.7-2.39,3.15-3.67,2.51-14.23,1.32,2.26,2.68,7.16.13,14.23,1.62-1.24,5.52-4.22,6.18-17.59-.11-2.13-.39-10.87-.39-10.87"/>
    <path class="cls-2" d="M62.34,43.97s12.65,6.96,12.01,19.04c.77-2.43,1.02-6.01,1.15-7.16.83,2.24,1.34,5.94,1.41,8.31,1.02-4.92,4.92-9.78-7.6-20.19,1.34,2.3,2.56,2.62,3.58,6.33-1.66-1.41-5.3-5.05-10.54-6.33Z"/>
    <path class="cls-2" d="M54.35,36.71s11.37-4,19.81,5.07c-2.24-.64-7.07-1.82-8.82-1.99.97.94,2.47,2.7,3.41,5.65-1.98-.76-6.46-4.66-19.8-4.49,2.78-1.05,4.6-2.11,13.39-2.36-1-.38-3.68-1.58-7.99-1.87Z"/>
    <path class="cls-2" d="M61.67,63.65s-.51-7.58-8.52-10.18c1.62,1.45,3.07,2.9,3.83,4.43-1.49-.3-4.49-1.32-7.61-.72,3.14.47,4.76.98,7.36,2.3-1.06.3-2.9-.3-6.26,1.24,3.41-.34,8.18,0,11.2,2.94Z"/>
    <path class="cls-5" d="M33.38,63.07s5.53-9,13.45-7.52c-2.75,1.05-4.51,1.85-4.98,2.45,1.62.43,3.41.98,4.43,3.79-1.7.85-6.09,2.85-7.24,4.47.77-2.04,2.26-4.77,3.15-5.3-1.58.4-8.26,2.88-5.32,13.48-.89-.77-8.14-4.39-6.05-15.09.25-1.26.93-2.39,1.67-3.43,2.38-3.37,7.92-9.08,17.29-3.09-3.07,0-13.29-.89-16.4,10.24Z"/>
    <path class="cls-9" d="M31.38,108.28s4.87-13.27,15.06-13.09c0,0-.97-.89-4.22-.49.42-.34,1-2.88,4.13-2.88-1.12-.62-5.85-2.65-12.26,4.21,1.05-.65,2.34-1.74,5.6-1.62-.58,1.41-8.18,2.19-8.32,13.86Z"/>
    <path class="cls-2" d="M33.23,121.59s3.88-3.1,5.18-6.53c.16-.42.25-.88.22-1.33-.12-1.72.54-4.71,1.46-8.01-.97.58-2.52,2.34-3.11,4.24.18-1.51-.41-7.03,4.38-10.45-2.44,1.57-6.02,2.49-6.67,9.7-.01.13-.01.26,0,.39.13,1.28.84,8.49-1.45,11.99Z"/>
    <path class="cls-2" d="M32.76,130.55s.7-2.92,5.04-6.39c.22-.17.4-.39.52-.64.74-1.58,2.19-5.45,2.04-8.33-.89,2.17-2.43,4.67-4.5,6.41-.89.65-2.3.71-4.15,3.62.8-.29,1.82-1.73,3.39-1.63-.51.8-2.94,3.64-2.33,6.96Z"/>
    <path class="cls-2" d="M51.48,109.56s5.36,11.48-2.11,22.64c1.86-.47,14.26-8.55,2.11-22.64Z"/>
    <path class="cls-2" d="M48.55,134.91s-4.11,4.45-4.79,8.24c-.09.94-.68,4.86,1.02,9.29-1.36-1.58-8.31-11.2,3.77-17.53Z"/>
    <path class="cls-2" d="M50.62,147.63s.04,6.35,2.81,9.54c-1.28-1.15-4.69-2.85-2.81-9.54Z"/>
    <path class="cls-2" d="M56.03,142.51s-1.38,1.46-.9,4.95c.06.44.2.86.4,1.25.92,1.89,3.15,5.93,2.85,9.18.47-2.94.68-5.62-.77-8.82-.81-1.58-2.17-4.77-1.58-6.56Z"/>
    <path class="cls-4" d="M70.87,42.67s11.63,6.64,8.18,20.64c1.02-.77,2.88-2.75,3.45-6.71.51,1.98,1.17,3.83,2.24,10.24.29-6.31-1.18-17.25-1.22-19.03,0-.21-.04-.41-.1-.61-.61-2.06-4.55-13.15-18.62-12.71,1.75.81,14.21,4.13,16.95,15.25-1.34-1.02-4.32-6.28-10.88-7.07Z"/>
    <path class="cls-7" d="M39.48,45.12s13.29-7.09,23.49.87c.16.12.31.26.46.4,2.19,2.05,10.31,8.44,9.24,16.66-.85-2.04-.68-2.04-1.79-3.45-.04.94-.55,4.6-1.79,6.86-.04-1.96.13-8.32-3.11-12.12.21,2.24,1.4,13.23-1.53,17.23-.09-2.3.95-16.68-14.66-22.23,2.54.38,7.65.69,9.31,2.54-2.81-2.62-1.19-5.74-19.61-6.76Z"/>
    <path class="cls-8" d="M43.1,73.15s10.44-9.16,18.87-3.02c.21-.77,1.05-8.68-10.95-8.09,1.7.38,3.66.21,5.24,2.13-1.41-.13-11.72-.96-16.15,7.41,2.35-1.15,4.22-3.96,9.46-4.22-.81.43-5.22,1.74-6.47,5.79Z"/>
    <path class="cls-3" d="M55.52,70.47s-4.55-.6-8.55,2.94c-.98,1.15-5.54,7.5-9.75,9.5,1.49-.21,6.43-1.19,10.31-4.81-.3,1.02-3.92,8.56-14.29,11.8,2.13.13,6.49,2.38,15.87-6.26.23-.21.43-.46.57-.73.94-1.76,3.1-7.13,8.58-9.74-1.53.21-2.85-.94-8.14,1.75.94-1.41.92-3.28,5.4-4.43Z"/>
    <path class="cls-12" d="M48.55,98.2s-4.18,3.47-2.49,12.62c.26,1.41.35,2.85.18,4.27-.38,3.03-1.79,7.73-8.94,14.63,2.14-3.92,5.18-9.2,4.6-15.76-.07-2.39-1.08-16.36,6.67-15.76Z"/>
    <path class="cls-14" d="M48.1,102.96s0,3.02.98,5.62c.43,1.36,1.74,8.43.3,11.88.94-.81,2.24-4.08,2.07-5.65.32,1.4,2.61,8.49-3.65,15.74-.98,1.08-8.03,7.68-7.11,16.5-.11-3.07-1.5-5.56-.31-9.26-.69,1.31-3.69,8.24-3.02,12.24-.67-2.46-5.27-9.21.18-17.42,1.02-1.05,9.49-11.34,9.86-14.87.12-2.02.52-4.04.41-6.21-.02-.42-.09-.83-.17-1.24-.29-1.49-.94-5.66.47-7.33Z"/>
    <path class="cls-15" d="M58.27,124.8s-3.15,6.86-8.2,10.12c-1.13,1.09-10.12,8.33-1.69,20.72-.32-2.43-.25-9.91,3.65-13.56-.13.89-1.11,5.27,0,8.08.27-1.81,1.34-8.86,4.8-11.59.35-.28.7-.56.98-.91,1.2-1.47,3.28-4.71,2.49-7.28-.61,1.69-3.42,5.08-6.87,6.77,1.85-1.85,6.19-7.03,4.83-12.36Z"/>
    <path class="cls-11" d="M64.59,136.65s-1.25,9.26.37,13.15c1.06,1.76,2.56,4.48,3.71,6.06.64,1.15,4.23,5.21,3.25,11.34-.38-1.36-2.06-7.76-7.17-11-.04,1.24-.2,2.35.4,4.45-1.26-1.55-5.84-7.75-5.96-13.82.09-1.13-.64-7.95,2.6-12.36-.3,1.77-.81,4.54-.3,7.27.54-.58.76-2.81,3.1-5.09Z"/>
  </g>
</svg>